# xmcd
#
# Track frame offsets: 
#        150
#        11840
#        23000
#        35085
#        44657
#        55410
#        66430
#        76237
#        86725
#        96595
#        106812
#        116015
#        127605
#        140287
#        150495
#        162442
#        174620
#        184152
#        193775
#        202877
#        213445
#        222157
#        232960
#        243552
#        253742
#
# Disc length: 3531 seconds
#
# Revision: 5
# Processed by: cddbd v1.5.2PL0 Copyright (c) Steve Scherf et al.
# Submitted via: ExactAudioCopyFreeDBPlugin 1.0
#
DISCID=650dc919
DTITLE=Fats Domino - Walking to New Orleans:  The Legendary Imperial R
DTITLE=ecordings, 1949-1962 (Crescent City Soul) [Capitol box set]
DYEAR=2002
DGENRE=Rhythm and Blues
TTITLE0=The Fat Man
TTITLE1=Detroit City Blues
TTITLE2=She's My Bay
TTITLE3=Every Night About This Time
TTITLE4=Hey! Là Bas Boogie
TTITLE5=Rockin' Chair
TTITLE6=Goin' Home (version #1)
TTITLE7=Reeling and Rocking
TTITLE8=Poor Poor Me
TTITLE9=Mardi Gras in New Orleans
TTITLE10=How Long
TTITLE11=Going to the River
TTITLE12=Swanee River Hop
TTITLE13=Rose Mary
TTITLE14=Please Don't Leave Me
TTITLE15=Something's Wrong
TTITLE16=You Done Me Wrong
TTITLE17=Thinking of You
TTITLE18=Where Did You Stay
TTITLE19=You Can Pack Your Suitcase
TTITLE20=Love Me
TTITLE21=All By Myself
TTITLE22=Don't You Know
TTITLE23=La-La (version #1)
TTITLE24=Ain't That a Shame
EXTD=
EXTT0=
EXTT1=
EXTT2=
EXTT3=
EXTT4=
EXTT5=
EXTT6=
EXTT7=
EXTT8=
EXTT9=
EXTT10=
EXTT11=
EXTT12=
EXTT13=
EXTT14=
EXTT15=
EXTT16=
EXTT17=
EXTT18=
EXTT19=
EXTT20=
EXTT21=
EXTT22=
EXTT23=
EXTT24=
PLAYORDER=
